# Blender v2.91.0 OBJ File: ''
# www.blender.org
mtllib besi.mtl
o Plane.002
v 1.388837 0.959883 1.642939
v 1.350277 0.891644 1.760548
v 2.712533 0.783203 1.954147
v 2.680281 0.728286 2.055937
v 2.653791 0.784983 1.940250
v 2.632426 0.703253 2.076151
v 2.596139 0.790621 1.930367
v 2.580552 0.706034 2.073073
v 2.529419 0.797240 1.918783
v 2.505931 0.711323 2.063439
v 2.422574 0.807172 1.901280
v 2.395858 0.721743 2.045112
v 2.252924 0.824787 1.870590
v 2.237130 0.740576 2.012700
v 2.086590 0.846573 1.833401
v 2.044226 0.767093 1.967604
v 1.949114 0.866077 1.800310
v 1.925352 0.785308 1.936869
v 1.820602 0.885903 1.766871
v 1.795148 0.808343 1.898355
v 1.763179 0.895598 1.750614
v 1.731828 0.819346 1.879940
v 1.718081 0.903213 1.737847
v 1.688526 0.827933 1.865674
v 1.679731 0.909688 1.726990
v 1.649536 0.836600 1.851360
v 1.651605 0.914437 1.719028
v 1.615335 0.843758 1.839503
v 1.608016 0.921796 1.706687
v 1.573019 0.852555 1.824926
v 1.438794 0.950368 1.658781
v 1.401068 0.875051 1.786521
v 1.415126 0.954364 1.652080
v 1.371836 0.873752 1.788048
v 1.490420 0.867515 1.799948
v 1.523405 0.936082 1.682734
v 1.532848 0.860596 1.811576
v 1.565710 0.928939 1.694711
v 1.480199 0.943377 1.670503
v 1.445538 0.873828 1.789231
v 1.361806 0.915771 1.722825
v 2.707695 0.773568 1.969176
v 2.642174 0.735691 2.017531
v 2.585233 0.728058 2.028522
v 2.512967 0.733744 2.018307
v 2.403855 0.744018 2.000225
v 2.241873 0.762489 1.968326
v 2.056886 0.787595 1.925587
v 1.932469 0.806194 1.894150
v 1.802769 0.828273 1.857148
v 1.741206 0.838886 1.839376
v 1.697369 0.847184 1.825557
v 1.658570 0.855198 1.812273
v 1.626179 0.861638 1.801577
v 1.583484 0.870007 1.787666
v 1.412346 0.894313 1.746430
v 1.384772 0.894592 1.745505
v 1.500286 0.884766 1.762994
v 1.542676 0.877780 1.774725
v 1.455903 0.891371 1.751825
v 2.659327 0.705557 2.070958
v 2.689618 0.780534 1.947877
v 2.680937 0.751270 1.993726
v 1.388735 0.968951 1.648707
v 1.350175 0.900711 1.766316
v 2.653689 0.794050 1.946018
v 2.596037 0.799688 1.936136
v 2.529317 0.806307 1.924551
v 2.422472 0.816239 1.907048
v 2.252822 0.833854 1.876358
v 2.086488 0.855640 1.839169
v 1.949012 0.875144 1.806078
v 1.820500 0.894970 1.772639
v 1.763077 0.904666 1.756382
v 1.717979 0.912280 1.743615
v 1.679628 0.918755 1.732758
v 1.651503 0.923504 1.724796
v 1.607914 0.930864 1.712456
v 1.438692 0.959435 1.664549
v 1.415024 0.963431 1.657848
v 1.523303 0.945149 1.688502
v 1.565608 0.938006 1.700479
v 1.480097 0.952444 1.676271
v 1.361704 0.924838 1.728593
v 2.642072 0.744758 2.023299
v 2.585131 0.737126 2.034291
v 2.512865 0.742811 2.024075
v 2.403753 0.753086 2.005993
v 2.241771 0.771556 1.974094
v 2.056784 0.796663 1.931355
v 1.932367 0.815262 1.899918
v 1.802667 0.837341 1.862916
v 1.741104 0.847954 1.845144
v 1.697267 0.856252 1.831325
v 1.658468 0.864265 1.818041
v 1.626077 0.870705 1.807345
v 1.583382 0.879074 1.793434
v 1.412244 0.903380 1.752198
v 1.384670 0.903659 1.751273
v 1.500184 0.893833 1.768762
v 1.542574 0.886847 1.780493
v 1.455801 0.900439 1.757593
v 2.689516 0.789602 1.953645
v 2.680835 0.760338 1.999494
v 1.356041 0.903707 1.741686
v 2.699413 0.751377 2.003858
v 2.638148 0.719055 2.048588
v 2.582892 0.717046 2.050798
v 2.509449 0.722533 2.040873
v 2.399856 0.732881 2.022668
v 2.239501 0.751533 1.990513
v 2.050556 0.777344 1.946596
v 1.928911 0.795751 1.915509
v 1.798958 0.818308 1.877751
v 1.736517 0.829116 1.859658
v 1.692948 0.837559 1.845615
v 1.654053 0.845899 1.831816
v 1.620757 0.852698 1.820540
v 1.578252 0.861281 1.806296
v 1.406707 0.884682 1.766476
v 1.378304 0.884172 1.766776
v 1.495353 0.876141 1.781471
v 1.537762 0.869188 1.793151
v 1.450720 0.882600 1.770528
v 2.674152 0.727076 2.036554
v 1.355939 0.912775 1.747455
v 2.239450 0.756066 1.993397
v 2.050505 0.781878 1.949480
v 1.537711 0.873721 1.796035
v 1.495302 0.880674 1.784355
v 2.674101 0.731610 2.039438
v 1.692897 0.842092 1.848499
v 1.654002 0.850433 1.834701
v 1.406656 0.889216 1.769360
v 1.378253 0.888705 1.769660
v 1.928860 0.800285 1.918393
v 2.582841 0.721580 2.053682
v 2.509398 0.727067 2.043757
v 1.620706 0.857232 1.823424
v 1.798907 0.822842 1.880635
v 2.399805 0.737415 2.025553
v 1.578201 0.865815 1.809180
v 1.450669 0.887133 1.773412
v 1.736466 0.833650 1.862542
v 2.638097 0.723589 2.051472
vt 0.000000 0.000000
vt 0.000000 0.029126
vt 0.702000 0.029126
vt 0.702000 0.000000
vt 0.000000 0.000000
vt 0.702000 0.000000
vt 0.702000 0.029126
vt 0.000000 0.029126
vt 0.851000 0.000000
vt 1.000000 0.000000
vt 1.000000 0.000000
vt 0.851000 0.000000
vt 0.851000 0.982090
vt 0.851000 1.000000
vt 1.000000 1.000000
vt 1.000000 0.982090
vt 0.851000 0.936067
vt 0.851000 0.963593
vt 1.000000 0.963593
vt 1.000000 0.936067
vt 0.851000 0.901058
vt 1.000000 0.901058
vt 0.851000 0.850158
vt 1.000000 0.850158
vt 0.851000 0.769150
vt 1.000000 0.769150
vt 0.851000 0.681855
vt 1.000000 0.681855
vt 0.851000 0.593343
vt 1.000000 0.593343
vt 0.851000 0.528099
vt 1.000000 0.528099
vt 0.851000 0.457435
vt 1.000000 0.457435
vt 0.851000 0.401938
vt 1.000000 0.401938
vt 0.851000 0.354745
vt 1.000000 0.354745
vt 0.851000 0.320134
vt 1.000000 0.320134
vt 0.851000 0.266494
vt 1.000000 0.266494
vt 0.851000 0.214434
vt 1.000000 0.214434
vt 0.851000 0.029126
vt 0.851000 0.058253
vt 1.000000 0.058253
vt 1.000000 0.029126
vt 0.851000 0.109205
vt 0.851000 0.162373
vt 1.000000 0.162373
vt 1.000000 0.109205
vt 0.000000 0.058253
vt 0.000000 0.109205
vt 0.702001 0.109205
vt 0.702000 0.058253
vt 0.000000 0.162373
vt 0.000000 0.214434
vt 0.702000 0.214434
vt 0.702000 0.162373
vt 0.000000 0.266494
vt 0.702000 0.266494
vt 0.000000 0.320134
vt 0.702000 0.320134
vt 0.000000 0.354745
vt 0.702000 0.354745
vt 0.000000 0.401938
vt 0.702000 0.401938
vt 0.000000 0.457435
vt 0.702000 0.457435
vt 0.000000 0.528099
vt 0.702000 0.528099
vt 0.000000 0.593343
vt 0.702000 0.593343
vt 0.000000 0.681856
vt 0.702000 0.681855
vt 0.000000 0.769150
vt 0.702000 0.769150
vt 0.000000 0.850158
vt 0.702000 0.850158
vt 0.000000 0.901059
vt 0.702000 0.901058
vt 0.000000 0.936067
vt 0.702000 0.936067
vt 0.000000 0.963593
vt 0.702000 0.963593
vt 0.000000 0.982090
vt 0.000000 1.000000
vt 0.702001 1.000000
vt 0.702001 0.982090
vt 0.851000 0.982090
vt 0.851000 0.936067
vt 0.851000 0.963593
vt 0.851000 0.901058
vt 0.851000 0.850158
vt 0.851000 0.769150
vt 0.851000 0.681855
vt 0.851000 0.593343
vt 0.851000 0.528099
vt 0.851000 0.457435
vt 0.851000 0.401938
vt 0.851000 0.354745
vt 0.851000 0.320134
vt 0.851000 0.266494
vt 0.851000 0.214434
vt 0.851000 0.029126
vt 0.851000 0.058253
vt 0.851000 0.109205
vt 0.851000 0.162373
vt 0.000000 0.058253
vt 0.702000 0.058253
vt 0.702001 0.109205
vt 0.000000 0.109205
vt 0.000000 0.162373
vt 0.702000 0.162373
vt 0.702000 0.214434
vt 0.000000 0.214434
vt 0.702000 0.266494
vt 0.000000 0.266494
vt 0.702000 0.320134
vt 0.000000 0.320134
vt 0.702000 0.354745
vt 0.000000 0.354745
vt 0.702000 0.401938
vt 0.000000 0.401938
vt 0.702000 0.457435
vt 0.000000 0.457435
vt 0.702000 0.528099
vt 0.000000 0.528099
vt 0.702000 0.593343
vt 0.000000 0.593343
vt 0.702000 0.681855
vt 0.000000 0.681856
vt 0.702000 0.769150
vt 0.000000 0.769150
vt 0.702000 0.850158
vt 0.000000 0.850158
vt 0.702000 0.901058
vt 0.000000 0.901059
vt 0.702000 0.936067
vt 0.000000 0.936067
vt 0.702000 0.963593
vt 0.000000 0.963593
vt 0.000000 0.982090
vt 0.702001 0.982090
vn -0.1067 -0.8368 -0.5369
vn 0.1067 0.8368 0.5370
vn -0.9684 0.1261 -0.2153
vn -0.9588 0.1448 -0.2445
vn 0.3762 0.5003 -0.7798
vn 0.3442 -0.8715 -0.3493
vn 0.9591 -0.1470 0.2418
vn 0.7252 0.2839 0.6272
vn 0.5078 -0.5036 0.6989
vn 0.0010 -0.8900 -0.4558
vn 0.0136 -0.8745 -0.4848
vn 0.1137 -0.5569 0.8227
vn -0.0833 -0.5377 0.8390
vn -0.0086 -0.8953 -0.4454
vn -0.1678 -0.5304 0.8309
vn -0.0126 -0.8951 -0.4457
vn -0.2072 -0.5267 0.8244
vn -0.0170 -0.8956 -0.4445
vn -0.2428 -0.5226 0.8172
vn -0.0208 -0.8961 -0.4434
vn -0.2735 -0.5184 0.8102
vn -0.0250 -0.8966 -0.4420
vn -0.3030 -0.5139 0.8025
vn -0.0278 -0.8975 -0.4402
vn -0.3218 -0.5108 0.7972
vn -0.0303 -0.8979 -0.4391
vn -0.3363 -0.5081 0.7929
vn -0.0349 -0.8981 -0.4384
vn -0.3702 -0.5015 0.7819
vn -0.0367 -0.8989 -0.4365
vn -0.3810 -0.4993 0.7782
vn -0.0364 -0.9000 -0.4344
vn -0.0363 -0.9010 -0.4323
vn -0.3637 -0.5029 0.7841
vn -0.0329 -0.9021 -0.4302
vn -0.3329 -0.5088 0.7939
vn -0.0623 -0.8769 -0.4765
vn 0.0041 -0.9019 -0.4318
vn -0.0119 -0.5368 0.8436
vn -0.1726 -0.5817 0.7949
vn -0.7445 -0.4635 -0.4805
vn -0.7937 -0.5736 -0.2023
vn -0.0144 -0.9029 -0.4295
vn -0.0276 -0.9028 -0.4292
vn -0.2880 -0.5163 0.8065
vn -0.1752 -0.5298 0.8298
vn 0.2280 -0.2343 -0.9450
vn 0.2279 -0.2343 -0.9450
vn -0.0026 -0.8736 -0.4866
vn 0.0053 -0.8733 -0.4870
vn -0.0113 -0.8744 -0.4851
vn -0.0090 -0.8748 -0.4845
vn 0.2063 -0.2488 -0.9463
vn -0.0796 -0.8590 -0.5056
vn -0.0131 -0.8741 -0.4855
vn -0.0132 -0.8736 -0.4865
vn -0.0132 -0.8729 -0.4876
vn -0.0127 -0.8728 -0.4879
vn -0.0106 -0.8726 -0.4883
vn 0.2188 -0.2368 -0.9466
vn -0.0091 -0.8721 -0.4892
vn 0.2034 -0.2338 -0.9507
vn -0.0079 -0.8719 -0.4896
vn 0.1899 -0.2315 -0.9541
vn -0.0057 -0.8714 -0.4904
vn 0.1663 -0.2332 -0.9581
vn -0.0040 -0.8713 -0.4907
vn 0.1438 -0.2262 -0.9634
vn -0.0016 -0.8709 -0.4914
vn 0.1415 -0.2212 -0.9649
vn 0.0002 -0.8709 -0.4913
vn 0.1443 -0.2236 -0.9639
vn 0.0091 -0.8719 -0.4896
vn 0.1607 -0.2177 -0.9627
vn 0.0262 -0.8656 -0.5000
vn 0.2303 -0.2716 -0.9344
vn 0.9242 0.2130 -0.3168
vn 0.9800 -0.0986 0.1728
vn 0.1369 -0.8571 -0.4966
vn -0.1659 0.8512 0.4979
vn -0.0118 0.7825 0.6225
vn 0.0242 0.7802 0.6250
vn -0.0275 0.7826 0.6219
vn -0.0315 0.7827 0.6216
vn -0.0359 0.7818 0.6225
vn -0.0397 0.7809 0.6234
vn -0.0438 0.7798 0.6244
vn -0.0467 0.7785 0.6259
vn -0.0492 0.7777 0.6267
vn -0.0538 0.7770 0.6272
vn -0.0556 0.7756 0.6287
vn -0.0552 0.7742 0.6305
vn -0.0551 0.7727 0.6323
vn -0.0517 0.7713 0.6344
vn 0.1085 0.7691 0.6298
vn -0.0148 0.7733 0.6339
vn -0.6250 0.7120 0.3199
vn -0.6735 0.4953 0.5487
vn -0.0332 0.7714 0.6355
vn -0.0464 0.7708 0.6354
vn 0.2145 0.9588 -0.1860
vn -0.0136 0.8112 0.5846
vn -0.0215 0.8108 0.5849
vn -0.0279 0.8092 0.5868
vn -0.0302 0.8096 0.5861
vn 0.2756 0.9465 -0.1675
vn 0.0690 0.8015 0.5940
vn -0.0320 0.8099 0.5857
vn -0.0321 0.8105 0.5848
vn -0.0322 0.8113 0.5838
vn -0.0317 0.8115 0.5835
vn -0.0295 0.8118 0.5832
vn -0.0281 0.8124 0.5824
vn 0.2054 0.9611 -0.1845
vn -0.0269 0.8127 0.5820
vn 0.1900 0.9634 -0.1891
vn -0.0247 0.8133 0.5813
vn 0.1764 0.9652 -0.1928
vn -0.0229 0.8135 0.5810
vn 0.1527 0.9692 -0.1932
vn -0.0206 0.8140 0.5805
vn 0.1303 0.9707 -0.2020
vn -0.0187 0.8140 0.5805
vn 0.1281 0.9698 -0.2072
vn -0.0098 0.8129 0.5823
vn 0.1308 0.9700 -0.2046
vn 0.0080 0.8196 0.5729
vn 0.1474 0.9667 -0.2093
vn 0.2159 0.9651 -0.1480
vn 0.1187 0.8144 0.5679
vn -0.6382 0.7272 0.2525
vn -0.7365 -0.4525 -0.5028
usemtl Material.002
s off
f 1/1/1 33/2/1 57/3/1 41/4/1
f 64/5/2 84/6/2 99/7/2 80/8/2
f 105/9/3 2/10/3 65/11/3 126/12/3
f 1/1/4 41/4/4 84/6/4 64/5/4
f 33/2/5 1/1/5 64/5/5 80/8/5
f 41/4/3 105/9/3 126/12/3 84/6/3
s 1
f 125/13/6 106/14/7 4/15/8 61/16/9
f 108/17/10 107/18/11 6/19/12 8/20/13
f 109/21/14 108/17/10 8/20/13 10/22/15
f 110/23/16 109/21/14 10/22/15 12/24/17
f 111/25/18 110/23/16 12/24/17 14/26/19
f 112/27/20 111/25/18 14/26/19 16/28/21
f 113/29/22 112/27/20 16/28/21 18/30/23
f 114/31/24 113/29/22 18/30/23 20/32/25
f 115/33/26 114/31/24 20/32/25 22/34/27
f 116/35/28 115/33/26 22/34/27 24/36/29
f 117/37/30 116/35/28 24/36/29 26/38/31
f 118/39/32 117/37/30 26/38/31 28/40/29
f 119/41/33 118/39/32 28/40/29 30/42/34
f 123/43/35 119/41/33 30/42/34 37/44/36
f 121/45/37 120/46/38 32/47/39 34/48/40
f 105/9/41 121/45/37 34/48/40 2/10/42
f 124/49/43 122/50/44 35/51/45 40/52/46
f 122/50/44 123/43/35 37/44/36 35/51/45
f 120/46/38 124/49/43 40/52/46 32/47/39
f 31/53/47 39/54/48 60/55/49 56/56/50
f 36/57/47 38/58/48 59/59/51 58/60/52
f 39/54/48 36/57/47 58/60/52 60/55/49
f 33/2/53 31/53/47 56/56/50 57/3/54
f 38/58/48 29/61/47 55/62/55 59/59/51
f 29/61/47 27/63/47 54/64/56 55/62/55
f 27/63/47 25/65/47 53/66/57 54/64/56
f 25/65/47 23/67/47 52/68/58 53/66/57
f 23/67/47 21/69/47 51/70/59 52/68/58
f 21/69/47 19/71/60 50/72/61 51/70/59
f 19/71/60 17/73/62 49/74/63 50/72/61
f 17/73/62 15/75/64 48/76/65 49/74/63
f 15/75/64 13/77/66 47/78/67 48/76/65
f 13/77/66 11/79/68 46/80/69 47/78/67
f 11/79/68 9/81/70 45/82/71 46/80/69
f 9/81/70 7/83/72 44/84/73 45/82/71
f 7/83/72 5/85/74 43/86/75 44/84/73
f 62/87/76 3/88/77 42/89/78 63/90/79
f 5/85/74 62/87/76 63/90/79 43/86/75
f 107/18/11 125/13/6 61/16/9 6/19/12
f 131/91/80 61/16/9 4/15/8 106/14/7
f 137/92/81 8/20/13 6/19/12 145/93/82
f 138/94/83 10/22/15 8/20/13 137/92/81
f 141/95/84 12/24/17 10/22/15 138/94/83
f 127/96/85 14/26/19 12/24/17 141/95/84
f 128/97/86 16/28/21 14/26/19 127/96/85
f 136/98/87 18/30/23 16/28/21 128/97/86
f 140/99/88 20/32/25 18/30/23 136/98/87
f 144/100/89 22/34/27 20/32/25 140/99/88
f 132/101/90 24/36/29 22/34/27 144/100/89
f 133/102/91 26/38/31 24/36/29 132/101/90
f 139/103/92 28/40/29 26/38/31 133/102/91
f 142/104/93 30/42/34 28/40/29 139/103/92
f 129/105/94 37/44/36 30/42/34 142/104/93
f 135/106/95 34/48/40 32/47/39 134/107/96
f 126/12/97 65/11/98 34/48/40 135/106/95
f 143/108/99 40/52/46 35/51/45 130/109/100
f 130/109/100 35/51/45 37/44/36 129/105/94
f 134/107/96 32/47/39 40/52/46 143/108/99
f 79/110/101 98/111/102 102/112/103 83/113/101
f 81/114/101 100/115/104 101/116/105 82/117/101
f 83/113/101 102/112/103 100/115/104 81/114/101
f 80/8/106 99/7/107 98/111/102 79/110/101
f 82/117/101 101/116/105 97/118/108 78/119/101
f 78/119/101 97/118/108 96/120/109 77/121/101
f 77/121/101 96/120/109 95/122/110 76/123/101
f 76/123/101 95/122/110 94/124/111 75/125/101
f 75/125/101 94/124/111 93/126/112 74/127/101
f 74/127/101 93/126/112 92/128/113 73/129/114
f 73/129/114 92/128/113 91/130/115 72/131/116
f 72/131/116 91/130/115 90/132/117 71/133/118
f 71/133/118 90/132/117 89/134/119 70/135/120
f 70/135/120 89/134/119 88/136/121 69/137/122
f 69/137/122 88/136/121 87/138/123 68/139/124
f 68/139/124 87/138/123 86/140/125 67/141/126
f 67/141/126 86/140/125 85/142/127 66/143/128
f 103/144/129 104/145/130 42/89/78 3/88/77
f 66/143/128 85/142/127 104/145/130 103/144/129
f 145/93/82 6/19/12 61/16/9 131/91/80
f 19/71/60 21/69/47 74/127/101 73/129/114
f 36/57/47 39/54/48 83/113/101 81/114/101
f 11/79/68 13/77/66 70/135/120 69/137/122
f 39/54/48 31/53/47 79/110/101 83/113/101
f 62/87/76 5/85/74 66/143/128 103/144/129
f 21/69/47 23/67/47 75/125/101 74/127/101
f 3/88/77 62/87/76 103/144/129
f 13/77/66 15/75/64 71/133/118 70/135/120
f 31/53/47 33/2/53 80/8/106 79/110/101
f 2/10/42 34/48/40 65/11/98
f 5/85/74 7/83/72 67/141/126 66/143/128
f 23/67/47 25/65/47 76/123/101 75/125/101
f 15/75/64 17/73/62 72/131/116 71/133/118
f 38/58/48 36/57/47 81/114/101 82/117/101
f 7/83/72 9/81/70 68/139/124 67/141/126
f 25/65/47 27/63/47 77/121/101 76/123/101
f 17/73/62 19/71/60 73/129/114 72/131/116
f 29/61/47 38/58/48 82/117/101 78/119/101
f 9/81/70 11/79/68 69/137/122 68/139/124
f 27/63/47 29/61/47 78/119/101 77/121/101
f 85/142/127 145/93/82 131/91/80 104/145/130
f 98/111/102 134/107/96 143/108/99 102/112/103
f 100/115/104 130/109/100 129/105/94 101/116/105
f 102/112/103 143/108/99 130/109/100 100/115/104
f 84/6/131 126/12/97 135/106/95 99/7/107
f 99/7/107 135/106/95 134/107/96 98/111/102
f 101/116/105 129/105/94 142/104/93 97/118/108
f 97/118/108 142/104/93 139/103/92 96/120/109
f 96/120/109 139/103/92 133/102/91 95/122/110
f 95/122/110 133/102/91 132/101/90 94/124/111
f 94/124/111 132/101/90 144/100/89 93/126/112
f 93/126/112 144/100/89 140/99/88 92/128/113
f 92/128/113 140/99/88 136/98/87 91/130/115
f 91/130/115 136/98/87 128/97/86 90/132/117
f 90/132/117 128/97/86 127/96/85 89/134/119
f 89/134/119 127/96/85 141/95/84 88/136/121
f 88/136/121 141/95/84 138/94/83 87/138/123
f 87/138/123 138/94/83 137/92/81 86/140/125
f 86/140/125 137/92/81 145/93/82 85/142/127
f 104/145/130 131/91/80 106/14/7 42/89/78
f 43/86/75 63/90/79 125/13/6 107/18/11
f 56/56/50 60/55/49 124/49/43 120/46/38
f 58/60/52 59/59/51 123/43/35 122/50/44
f 60/55/49 58/60/52 122/50/44 124/49/43
f 41/4/132 57/3/54 121/45/37 105/9/41
f 57/3/54 56/56/50 120/46/38 121/45/37
f 59/59/51 55/62/55 119/41/33 123/43/35
f 55/62/55 54/64/56 118/39/32 119/41/33
f 54/64/56 53/66/57 117/37/30 118/39/32
f 53/66/57 52/68/58 116/35/28 117/37/30
f 52/68/58 51/70/59 115/33/26 116/35/28
f 51/70/59 50/72/61 114/31/24 115/33/26
f 50/72/61 49/74/63 113/29/22 114/31/24
f 49/74/63 48/76/65 112/27/20 113/29/22
f 48/76/65 47/78/67 111/25/18 112/27/20
f 47/78/67 46/80/69 110/23/16 111/25/18
f 46/80/69 45/82/71 109/21/14 110/23/16
f 45/82/71 44/84/73 108/17/10 109/21/14
f 44/84/73 43/86/75 107/18/11 108/17/10
f 63/90/79 42/89/78 106/14/7 125/13/6
